# xmcd CD database file
# Copyright (C) 1993-1998 Ti Kan
#
# Track frame offsets:
# 150
# 22473
# 40308
# 59250
# 71848
# 89788
# 113650
# 128483
# 145808
# 159655
# 172740
# 191765
# 208540
#
# Disc length: 2948 seconds
#
# Revision: 0
# Processed by: cddbd v1.4b41PL1 Copyright (c) Steve Scherf et al.
# Submitted via: inCDius 1.1b8
#
DISCID=be0b820d
DTITLE=Northern Lights - Can't Buy Your Way
DYEAR=1900
DGENRE=
TTITLE0=Can't Buy Your Way
TTITLE1=My Only One
TTITLE2=Lighthouse
TTITLE3=When the Time Had Fully Come
TTITLE4=September's End
TTITLE5=Rainmaker
TTITLE6=City On a Hill
TTITLE7=Take You Back Again
TTITLE8=Heartache Tonight
TTITLE9=Shake This Feeling
TTITLE10=Jubilation
TTITLE11=Anger and Tears
TTITLE12=On the Edge
EXTD=with special Guest Bassar Clements, Matt Glaser and\nStuart Duncan.\nFlyi
EXTD=ng Fish Records, Inc FF70593   \n©1991 Northern Lights\nsubmitted by Brya
EXTD=n Walls <mailto:bwalls@pobox.com>
EXTT0=
EXTT1=
EXTT2=
EXTT3=
EXTT4=
EXTT5=
EXTT6=
EXTT7=
EXTT8=
EXTT9=
EXTT10=
EXTT11=
EXTT12=
PLAYORDER=
